<mxfile host="172.29.88.110" modified="2024-01-04T09:29:21.961Z" agent="Mozilla/5.0 (Windows NT 10.0; Win64; x64) AppleWebKit/537.36 (KHTML, like Gecko) Chrome/120.0.0.0 Safari/537.36" etag="2b4kTo3o9ls6QHtStWRp" version="21.5.1" type="embed" pages="2">
  <diagram id="inMPcjYvnmvmxzhDKLPN" name="重试方案">
    <mxGraphModel dx="1050" dy="556" grid="1" gridSize="10" guides="1" tooltips="1" connect="1" arrows="1" fold="1" page="1" pageScale="1" pageWidth="827" pageHeight="1169" math="0" shadow="0">
      <root>
        <mxCell id="0" />
        <mxCell id="1" parent="0" />
        <mxCell id="2" value="客户端" style="shape=umlLifeline;perimeter=lifelinePerimeter;whiteSpace=wrap;html=1;container=1;dropTarget=0;collapsible=0;recursiveResize=0;outlineConnect=0;portConstraint=eastwest;newEdgeStyle={&quot;edgeStyle&quot;:&quot;elbowEdgeStyle&quot;,&quot;elbow&quot;:&quot;vertical&quot;,&quot;curved&quot;:0,&quot;rounded&quot;:0};" vertex="1" parent="1">
          <mxGeometry x="130" y="90" width="100" height="640" as="geometry" />
        </mxCell>
        <mxCell id="3" value="" style="html=1;points=[];perimeter=orthogonalPerimeter;outlineConnect=0;targetShapes=umlLifeline;portConstraint=eastwest;newEdgeStyle={&quot;edgeStyle&quot;:&quot;elbowEdgeStyle&quot;,&quot;elbow&quot;:&quot;vertical&quot;,&quot;curved&quot;:0,&quot;rounded&quot;:0};" vertex="1" parent="2">
          <mxGeometry x="45" y="60" width="10" height="120" as="geometry" />
        </mxCell>
        <mxCell id="4" value="" style="html=1;points=[];perimeter=orthogonalPerimeter;outlineConnect=0;targetShapes=umlLifeline;portConstraint=eastwest;newEdgeStyle={&quot;edgeStyle&quot;:&quot;elbowEdgeStyle&quot;,&quot;elbow&quot;:&quot;vertical&quot;,&quot;curved&quot;:0,&quot;rounded&quot;:0};" vertex="1" parent="2">
          <mxGeometry x="45" y="250" width="10" height="250" as="geometry" />
        </mxCell>
        <mxCell id="5" value="服务端" style="shape=umlLifeline;perimeter=lifelinePerimeter;whiteSpace=wrap;html=1;container=1;dropTarget=0;collapsible=0;recursiveResize=0;outlineConnect=0;portConstraint=eastwest;newEdgeStyle={&quot;edgeStyle&quot;:&quot;elbowEdgeStyle&quot;,&quot;elbow&quot;:&quot;vertical&quot;,&quot;curved&quot;:0,&quot;rounded&quot;:0};" vertex="1" parent="1">
          <mxGeometry x="570" y="90" width="100" height="640" as="geometry" />
        </mxCell>
        <mxCell id="6" value="" style="html=1;points=[];perimeter=orthogonalPerimeter;outlineConnect=0;targetShapes=umlLifeline;portConstraint=eastwest;newEdgeStyle={&quot;edgeStyle&quot;:&quot;elbowEdgeStyle&quot;,&quot;elbow&quot;:&quot;vertical&quot;,&quot;curved&quot;:0,&quot;rounded&quot;:0};" vertex="1" parent="5">
          <mxGeometry x="45" y="60" width="10" height="120" as="geometry" />
        </mxCell>
        <mxCell id="7" value="" style="html=1;points=[];perimeter=orthogonalPerimeter;outlineConnect=0;targetShapes=umlLifeline;portConstraint=eastwest;newEdgeStyle={&quot;edgeStyle&quot;:&quot;elbowEdgeStyle&quot;,&quot;elbow&quot;:&quot;vertical&quot;,&quot;curved&quot;:0,&quot;rounded&quot;:0};" vertex="1" parent="5">
          <mxGeometry x="45" y="250" width="10" height="250" as="geometry" />
        </mxCell>
        <mxCell id="8" value="post请求" style="html=1;verticalAlign=bottom;endArrow=block;edgeStyle=elbowEdgeStyle;elbow=vertical;curved=0;rounded=0;dashed=1;" edge="1" parent="1" target="6">
          <mxGeometry width="80" relative="1" as="geometry">
            <mxPoint x="180" y="160" as="sourcePoint" />
            <mxPoint x="514.5" y="160" as="targetPoint" />
          </mxGeometry>
        </mxCell>
        <mxCell id="9" value="请求成功响应" style="html=1;verticalAlign=bottom;endArrow=none;elbow=vertical;rounded=0;dashed=1;startArrow=classic;startFill=1;endFill=0;" edge="1" parent="1" target="6">
          <mxGeometry width="80" relative="1" as="geometry">
            <mxPoint x="180" y="260" as="sourcePoint" />
            <mxPoint x="514.5" y="260" as="targetPoint" />
          </mxGeometry>
        </mxCell>
        <mxCell id="10" value="post请求" style="html=1;verticalAlign=bottom;endArrow=block;edgeStyle=elbowEdgeStyle;elbow=vertical;curved=0;rounded=0;dashed=1;" edge="1" parent="1">
          <mxGeometry width="80" relative="1" as="geometry">
            <mxPoint x="180" y="360" as="sourcePoint" />
            <mxPoint x="615" y="360" as="targetPoint" />
          </mxGeometry>
        </mxCell>
        <mxCell id="11" value="请求失败" style="html=1;verticalAlign=bottom;endArrow=none;elbow=vertical;rounded=0;dashed=1;startArrow=classic;startFill=1;endFill=0;" edge="1" parent="1">
          <mxGeometry width="80" relative="1" as="geometry">
            <mxPoint x="180" y="390" as="sourcePoint" />
            <mxPoint x="615" y="390" as="targetPoint" />
          </mxGeometry>
        </mxCell>
        <mxCell id="12" value="请求重试" style="html=1;verticalAlign=bottom;endArrow=block;edgeStyle=elbowEdgeStyle;elbow=vertical;curved=0;rounded=0;dashed=1;" edge="1" parent="1">
          <mxGeometry width="80" relative="1" as="geometry">
            <mxPoint x="180" y="440" as="sourcePoint" />
            <mxPoint x="615" y="440" as="targetPoint" />
          </mxGeometry>
        </mxCell>
        <mxCell id="13" value="请求失败" style="html=1;verticalAlign=bottom;endArrow=none;elbow=vertical;rounded=0;dashed=1;startArrow=classic;startFill=1;endFill=0;" edge="1" parent="1">
          <mxGeometry width="80" relative="1" as="geometry">
            <mxPoint x="180" y="480" as="sourcePoint" />
            <mxPoint x="615" y="480" as="targetPoint" />
          </mxGeometry>
        </mxCell>
        <mxCell id="14" value="请求重试" style="html=1;verticalAlign=bottom;endArrow=block;edgeStyle=elbowEdgeStyle;elbow=vertical;curved=0;rounded=0;dashed=1;" edge="1" parent="1">
          <mxGeometry width="80" relative="1" as="geometry">
            <mxPoint x="180" y="520" as="sourcePoint" />
            <mxPoint x="615" y="520" as="targetPoint" />
          </mxGeometry>
        </mxCell>
        <mxCell id="15" value="loop" style="shape=umlFrame;whiteSpace=wrap;html=1;pointerEvents=0;" vertex="1" parent="1">
          <mxGeometry x="110" y="410" width="540" height="140" as="geometry" />
        </mxCell>
        <mxCell id="16" value="请求成功响应" style="html=1;verticalAlign=bottom;endArrow=none;elbow=vertical;rounded=0;dashed=1;startArrow=classic;startFill=1;endFill=0;" edge="1" parent="1">
          <mxGeometry width="80" relative="1" as="geometry">
            <mxPoint x="180" y="580" as="sourcePoint" />
            <mxPoint x="615" y="580" as="targetPoint" />
          </mxGeometry>
        </mxCell>
        <mxCell id="21" value="" style="edgeStyle=orthogonalEdgeStyle;rounded=0;orthogonalLoop=1;jettySize=auto;html=1;" edge="1" parent="1" source="22" target="32">
          <mxGeometry relative="1" as="geometry" />
        </mxCell>
        <mxCell id="22" value="上位机" style="rounded=1;whiteSpace=wrap;html=1;" vertex="1" parent="1">
          <mxGeometry x="169" y="860" width="120" height="60" as="geometry" />
        </mxCell>
        <mxCell id="23" value="" style="edgeStyle=orthogonalEdgeStyle;rounded=0;orthogonalLoop=1;jettySize=auto;html=1;" edge="1" parent="1" source="26" target="27">
          <mxGeometry relative="1" as="geometry" />
        </mxCell>
        <mxCell id="24" value="上传成功" style="edgeLabel;html=1;align=center;verticalAlign=middle;resizable=0;points=[];" vertex="1" connectable="0" parent="23">
          <mxGeometry x="-0.2111" relative="1" as="geometry">
            <mxPoint as="offset" />
          </mxGeometry>
        </mxCell>
        <mxCell id="25" value="" style="edgeStyle=orthogonalEdgeStyle;rounded=0;orthogonalLoop=1;jettySize=auto;html=1;" edge="1" parent="1" source="26" target="30">
          <mxGeometry relative="1" as="geometry" />
        </mxCell>
        <mxCell id="26" value="上传成功" style="rhombus;whiteSpace=wrap;html=1;rounded=1;" vertex="1" parent="1">
          <mxGeometry x="189" y="1120" width="80" height="80" as="geometry" />
        </mxCell>
        <mxCell id="27" value="完成" style="whiteSpace=wrap;html=1;rounded=1;" vertex="1" parent="1">
          <mxGeometry x="169" y="1280" width="120" height="60" as="geometry" />
        </mxCell>
        <mxCell id="28" value="" style="edgeStyle=orthogonalEdgeStyle;rounded=0;orthogonalLoop=1;jettySize=auto;html=1;" edge="1" parent="1" source="30" target="36">
          <mxGeometry relative="1" as="geometry" />
        </mxCell>
        <mxCell id="29" value="重试" style="edgeLabel;html=1;align=center;verticalAlign=middle;resizable=0;points=[];" vertex="1" connectable="0" parent="28">
          <mxGeometry x="-0.3238" y="-2" relative="1" as="geometry">
            <mxPoint as="offset" />
          </mxGeometry>
        </mxCell>
        <mxCell id="30" value="上传失败" style="whiteSpace=wrap;html=1;rounded=1;" vertex="1" parent="1">
          <mxGeometry x="392.33000000000004" y="1130" width="120" height="60" as="geometry" />
        </mxCell>
        <mxCell id="31" value="" style="edgeStyle=orthogonalEdgeStyle;rounded=0;orthogonalLoop=1;jettySize=auto;html=1;" edge="1" parent="1" source="32" target="26">
          <mxGeometry relative="1" as="geometry" />
        </mxCell>
        <mxCell id="32" value="告警上传" style="rounded=1;whiteSpace=wrap;html=1;" vertex="1" parent="1">
          <mxGeometry x="169" y="1000" width="120" height="60" as="geometry" />
        </mxCell>
        <mxCell id="33" value="" style="edgeStyle=orthogonalEdgeStyle;rounded=0;orthogonalLoop=1;jettySize=auto;html=1;" edge="1" parent="1" source="36" target="32">
          <mxGeometry relative="1" as="geometry" />
        </mxCell>
        <mxCell id="34" value="间隔1000ms重试" style="edgeLabel;html=1;align=center;verticalAlign=middle;resizable=0;points=[];" vertex="1" connectable="0" parent="33">
          <mxGeometry x="-0.0444" y="-1" relative="1" as="geometry">
            <mxPoint as="offset" />
          </mxGeometry>
        </mxCell>
        <mxCell id="35" value="" style="edgeStyle=orthogonalEdgeStyle;rounded=0;orthogonalLoop=1;jettySize=auto;html=1;" edge="1" parent="1" source="36" target="38">
          <mxGeometry relative="1" as="geometry" />
        </mxCell>
        <mxCell id="36" value="判断重试次数是否&amp;gt;配置值(默认3次)" style="rhombus;whiteSpace=wrap;html=1;rounded=1;" vertex="1" parent="1">
          <mxGeometry x="412.33000000000004" y="990" width="80" height="80" as="geometry" />
        </mxCell>
        <mxCell id="37" value="" style="edgeStyle=orthogonalEdgeStyle;rounded=0;orthogonalLoop=1;jettySize=auto;html=1;" edge="1" parent="1" source="38" target="40">
          <mxGeometry relative="1" as="geometry" />
        </mxCell>
        <mxCell id="38" value="加入等待队列" style="whiteSpace=wrap;html=1;rounded=1;" vertex="1" parent="1">
          <mxGeometry x="609" y="1000" width="120" height="60" as="geometry" />
        </mxCell>
        <mxCell id="39" value="" style="edgeStyle=orthogonalEdgeStyle;rounded=0;orthogonalLoop=1;jettySize=auto;html=1;" edge="1" parent="1" source="40" target="42">
          <mxGeometry relative="1" as="geometry" />
        </mxCell>
        <mxCell id="40" value="等待定时任务执行" style="whiteSpace=wrap;html=1;rounded=1;" vertex="1" parent="1">
          <mxGeometry x="609" y="1130" width="120" height="60" as="geometry" />
        </mxCell>
        <mxCell id="41" value="" style="edgeStyle=orthogonalEdgeStyle;rounded=0;orthogonalLoop=1;jettySize=auto;html=1;" edge="1" parent="1" source="42" target="44">
          <mxGeometry relative="1" as="geometry" />
        </mxCell>
        <mxCell id="42" value="执行定时任务" style="whiteSpace=wrap;html=1;rounded=1;" vertex="1" parent="1">
          <mxGeometry x="609" y="1280" width="120" height="60" as="geometry" />
        </mxCell>
        <mxCell id="43" value="" style="edgeStyle=orthogonalEdgeStyle;rounded=0;orthogonalLoop=1;jettySize=auto;html=1;entryX=0;entryY=0.5;entryDx=0;entryDy=0;" edge="1" parent="1" source="44" target="32">
          <mxGeometry relative="1" as="geometry">
            <mxPoint x="669" y="1560" as="targetPoint" />
            <Array as="points">
              <mxPoint x="99" y="1450" />
              <mxPoint x="99" y="1030" />
            </Array>
          </mxGeometry>
        </mxCell>
        <mxCell id="44" value="遍历每个待上报告警（间隔时间为1000ms）" style="whiteSpace=wrap;html=1;rounded=1;" vertex="1" parent="1">
          <mxGeometry x="609" y="1420" width="120" height="60" as="geometry" />
        </mxCell>
      </root>
    </mxGraphModel>
  </diagram>
  <diagram id="mIZACfEq86hcJBFB6r5I" name="Page-2">
    <mxGraphModel dx="2049" dy="1103" grid="1" gridSize="10" guides="1" tooltips="1" connect="1" arrows="1" fold="1" page="1" pageScale="1" pageWidth="827" pageHeight="1169" math="0" shadow="0">
      <root>
        <mxCell id="0" />
        <mxCell id="1" parent="0" />
        <mxCell id="QNoWiceh-Iu27-p_oemG-3" value="&lt;p style=&quot;margin:0px;margin-top:4px;text-align:center;&quot;&gt;&lt;i&gt;&amp;lt;&amp;lt;interface&amp;gt;&amp;gt;&lt;/i&gt;&lt;br/&gt;&lt;b&gt;CacheManager&lt;K, V&gt;&lt;/b&gt;&lt;/p&gt;&lt;hr size=&quot;1&quot;/&gt;" style="verticalAlign=top;align=left;overflow=fill;fontSize=14;fontFamily=Helvetica;html=1;rounded=0;shadow=0;comic=0;labelBackgroundColor=none;strokeWidth=1;" vertex="1" parent="1">
          <mxGeometry x="310" y="600" width="203" height="35" as="geometry" />
        </mxCell>
        <mxCell id="QNoWiceh-Iu27-p_oemG-4" value="&lt;p style=&quot;margin:0px;margin-top:4px;text-align:center;&quot;&gt;&lt;b&gt;GuavaCacheManager&lt;K, V&gt;&lt;/b&gt;&lt;/p&gt;&lt;hr size=&quot;1&quot;/&gt;" style="verticalAlign=top;align=left;overflow=fill;fontSize=14;fontFamily=Helvetica;html=1;rounded=0;shadow=0;comic=0;labelBackgroundColor=none;strokeWidth=1;" vertex="1" parent="1">
          <mxGeometry x="556" y="678" width="246" height="30" as="geometry" />
        </mxCell>
        <mxCell id="QNoWiceh-Iu27-p_oemG-5" value="&lt;p style=&quot;margin:0px;margin-top:4px;text-align:center;&quot;&gt;&lt;b&gt;RedisCacheManager&lt;K, V&gt;&lt;/b&gt;&lt;/p&gt;&lt;hr size=&quot;1&quot;/&gt;" style="verticalAlign=top;align=left;overflow=fill;fontSize=14;fontFamily=Helvetica;html=1;rounded=0;shadow=0;comic=0;labelBackgroundColor=none;strokeWidth=1;" vertex="1" parent="1">
          <mxGeometry x="26" y="678" width="241" height="30" as="geometry" />
        </mxCell>
        <mxCell id="QNoWiceh-Iu27-p_oemG-6" value="&lt;p style=&quot;margin:0px;margin-top:4px;text-align:center;&quot;&gt;&lt;b&gt;SpringCacheManager&lt;K, V&gt;&lt;/b&gt;&lt;/p&gt;&lt;hr size=&quot;1&quot;/&gt;" style="verticalAlign=top;align=left;overflow=fill;fontSize=14;fontFamily=Helvetica;html=1;rounded=0;shadow=0;comic=0;labelBackgroundColor=none;strokeWidth=1;" vertex="1" parent="1">
          <mxGeometry x="287" y="678" width="249" height="30" as="geometry" />
        </mxCell>
        <mxCell id="QNoWiceh-Iu27-p_oemG-7" value="" style="html=1;rounded=1;edgeStyle=orthogonalEdgeStyle;dashed=1;startArrow=none;endArrow=block;endSize=12;strokeColor=#008200;exitX=0.500;exitY=0.002;exitDx=0;exitDy=0;entryX=0.500;entryY=1.002;entryDx=0;entryDy=0;" edge="1" parent="1" source="QNoWiceh-Iu27-p_oemG-4" target="QNoWiceh-Iu27-p_oemG-3">
          <mxGeometry width="50" height="50" relative="1" as="geometry">
            <Array as="points">
              <mxPoint x="679" y="653" />
              <mxPoint x="412" y="653" />
            </Array>
          </mxGeometry>
        </mxCell>
        <mxCell id="QNoWiceh-Iu27-p_oemG-8" value="" style="html=1;rounded=1;edgeStyle=orthogonalEdgeStyle;dashed=1;startArrow=none;endArrow=block;endSize=12;strokeColor=#008200;exitX=0.500;exitY=0.002;exitDx=0;exitDy=0;entryX=0.500;entryY=1.002;entryDx=0;entryDy=0;" edge="1" parent="1" source="QNoWiceh-Iu27-p_oemG-5" target="QNoWiceh-Iu27-p_oemG-3">
          <mxGeometry width="50" height="50" relative="1" as="geometry">
            <Array as="points">
              <mxPoint x="147" y="653" />
              <mxPoint x="412" y="653" />
            </Array>
          </mxGeometry>
        </mxCell>
        <mxCell id="QNoWiceh-Iu27-p_oemG-9" value="" style="html=1;rounded=1;edgeStyle=orthogonalEdgeStyle;dashed=1;startArrow=none;endArrow=block;endSize=12;strokeColor=#008200;exitX=0.500;exitY=0.002;exitDx=0;exitDy=0;entryX=0.500;entryY=1.002;entryDx=0;entryDy=0;" edge="1" parent="1" source="QNoWiceh-Iu27-p_oemG-6" target="QNoWiceh-Iu27-p_oemG-3">
          <mxGeometry width="50" height="50" relative="1" as="geometry">
            <Array as="points" />
          </mxGeometry>
        </mxCell>
      </root>
    </mxGraphModel>
  </diagram>
</mxfile>
